<svg xmlns="http://www.w3.org/2000/svg" width="24" height="24" viewBox="0 0 24 24">
    <defs>
        <linearGradient id="a" x1="-42.915%" x2="115.518%" y1="86.641%" y2="30.412%">
            <stop offset="0%" stop-color="#0691B4"/>
            <stop offset="100%" stop-color="#36D5FA"/>
        </linearGradient>
    </defs>
    <path fill="url(#a)" fill-rule="evenodd" d="M12 0C5.373 0 0 5.373 0 12s5.373 12 12 12 12-5.373 12-12c0-6.628-5.373-12-12-12zm3.102 11.998L13.135 12l-.001 7.2h-2.699V12h-1.8V9.519l1.8-.001-.003-1.461c0-2.025.55-3.257 2.933-3.257h1.986v2.483h-1.242c-.929 0-.974.346-.974.992l-.003 1.243h2.232l-.262 2.48z"/>
</svg>
