<svg xmlns="http://www.w3.org/2000/svg" width="24" height="24" viewBox="0 0 24 24">
    <defs>
        <linearGradient id="a" x1="-42.915%" x2="115.518%" y1="86.641%" y2="30.412%">
            <stop offset="0%" stop-color="#0691B4"/>
            <stop offset="100%" stop-color="#36D5FA"/>
        </linearGradient>
    </defs>
    <path fill="url(#a)" fill-rule="evenodd" d="M11.916 13.858c-1.315 0-2.386-1.037-2.385-2.312 0-.503.17-.968.452-1.347a2.409 2.409 0 0 1 1.934-.964c.796 0 1.5.382 1.934.964.282.38.452.844.452 1.347 0 1.275-1.072 2.312-2.387 2.312zm5.21-5.14l-2.29.008-.008-2.226 1.998-.006.3-.001v2.226zM11.915 0c6.572 0 11.917 5.18 11.917 11.546 0 6.367-5.346 11.547-11.917 11.547C5.346 23.093 0 17.913 0 11.546 0 5.18 5.346 0 11.916 0zm6.778 10.199v-2.68c0-1.4-1.175-2.539-2.62-2.539H7.759c-1.445 0-2.62 1.138-2.62 2.538v8.058c0 1.4 1.175 2.538 2.62 2.538h8.315c1.445 0 2.62-1.138 2.62-2.538v-5.377zm-3.07 1.347c0-.476-.1-.931-.276-1.347h2.024v5.377c0 .694-.583 1.257-1.299 1.257H7.758c-.716 0-1.299-.563-1.299-1.257v-5.377h2.024a3.471 3.471 0 0 0-.273 1.347c0 1.98 1.662 3.592 3.706 3.592 2.045 0 3.708-1.612 3.708-3.592z"/>
</svg>
