<svg xmlns="http://www.w3.org/2000/svg" width="24" height="24" viewBox="0 0 24 24">
    <defs>
        <linearGradient id="a" x1="-42.915%" x2="115.518%" y1="86.641%" y2="30.412%">
            <stop offset="0%" stop-color="#0691B4"/>
            <stop offset="100%" stop-color="#36D5FA"/>
        </linearGradient>
    </defs>
    <path fill="url(#a)" fill-rule="evenodd" d="M174 60c-6.627 0-12-5.373-12-12s5.373-12 12-12 12 5.373 12 12-5.373 12-12 12zm6.973-10.66c0-2.482-1.372-3.636-3.202-3.636-1.477 0-2.137.785-2.506 1.335v.026h-.018c.005-.009.012-.018.018-.026v-1.145h-2.781c.037.758 0 8.077 0 8.077h2.781v-4.51c0-.243.019-.483.092-.656.202-.483.659-.982 1.427-.982 1.007 0 1.409.741 1.409 1.827v4.32h2.78v-4.63zM169.574 42c-.952 0-1.574.603-1.574 1.395 0 .776.604 1.397 1.537 1.397h.019c.97 0 1.573-.621 1.573-1.397-.018-.792-.603-1.395-1.555-1.395zm-1.409 11.97h2.78v-8.076h-2.78v8.077z" transform="translate(-162 -36)"/>
</svg>
