<svg xmlns="http://www.w3.org/2000/svg" width="150" height="43" viewBox="0 0 150 43">
    <defs>
        <linearGradient id="a" x1="-42.915%" x2="115.518%" y1="86.641%" y2="30.412%">
            <stop offset="0%" stop-color="#2193B0"/>
            <stop offset="100%" stop-color="#6DD5ED"/>
        </linearGradient>
        <linearGradient id="b" x1="-293.393%" x2="359.017%" y1="164.946%" y2="-52.292%">
            <stop offset="0%" stop-color="#2193B0"/>
            <stop offset="100%" stop-color="#6DD5ED"/>
        </linearGradient>
        <linearGradient id="c" x1="312.643%" x2="-94.9%" y1="-978.259%" y2="617.114%">
            <stop offset="0%" stop-color="#2193B0"/>
            <stop offset="100%" stop-color="#6DD5ED"/>
        </linearGradient>
        <linearGradient id="d" x1="150.524%" x2="10.698%" y1="6765.471%" y2="-2575.771%">
            <stop offset="0%" stop-color="#2193B0"/>
            <stop offset="100%" stop-color="#6DD5ED"/>
        </linearGradient>
        <linearGradient id="e" x1="-425.501%" x2="185.864%" y1="503.032%" y2="-79.029%">
            <stop offset="0%" stop-color="#2193B0"/>
            <stop offset="100%" stop-color="#6DD5ED"/>
        </linearGradient>
        <linearGradient id="f" x1="-382.336%" x2="395.04%" y1="250.523%" y2="-110.046%">
            <stop offset="0%" stop-color="#2193B0"/>
            <stop offset="100%" stop-color="#6DD5ED"/>
        </linearGradient>
        <linearGradient id="g" x1="-354.767%" x2="422.292%" y1="237.551%" y2="-122.7%">
            <stop offset="0%" stop-color="#2193B0"/>
            <stop offset="100%" stop-color="#6DD5ED"/>
        </linearGradient>
        <linearGradient id="h" x1="-684.735%" x2="363.29%" y1="390.801%" y2="-95.316%">
            <stop offset="0%" stop-color="#2193B0"/>
            <stop offset="100%" stop-color="#6DD5ED"/>
        </linearGradient>
        <linearGradient id="i" x1="-1329.515%" x2="339.039%" y1="689.847%" y2="-84.052%">
            <stop offset="0%" stop-color="#2193B0"/>
            <stop offset="100%" stop-color="#6DD5ED"/>
        </linearGradient>
        <linearGradient id="j" x1="-1060.366%" x2="396.995%" y1="297.469%" y2="-26.635%">
            <stop offset="0%" stop-color="#2193B0"/>
            <stop offset="100%" stop-color="#6DD5ED"/>
        </linearGradient>
        <linearGradient id="k" x1="-1306.694%" x2="361.905%" y1="679.245%" y2="-94.699%">
            <stop offset="0%" stop-color="#2193B0"/>
            <stop offset="100%" stop-color="#6DD5ED"/>
        </linearGradient>
        <linearGradient id="l" x1="-770.616%" x2="343.368%" y1="430.435%" y2="-86.368%">
            <stop offset="0%" stop-color="#2193B0"/>
            <stop offset="100%" stop-color="#6DD5ED"/>
        </linearGradient>
        <linearGradient id="m" x1="-244.099%" x2="1679.833%" y1="220.375%" y2="-887.039%">
            <stop offset="0%" stop-color="#2193B0"/>
            <stop offset="100%" stop-color="#6DD5ED"/>
        </linearGradient>
        <linearGradient id="n" x1="-310.602%" x2="1548.628%" y1="271.97%" y2="-848.769%">
            <stop offset="0%" stop-color="#2193B0"/>
            <stop offset="100%" stop-color="#6DD5ED"/>
        </linearGradient>
        <linearGradient id="o" x1="-2294.404%" x2="7924.574%" y1="237.23%" y2="-576.723%">
            <stop offset="0%" stop-color="#2193B0"/>
            <stop offset="100%" stop-color="#6DD5ED"/>
        </linearGradient>
        <linearGradient id="p" x1="-369.758%" x2="1236.514%" y1="237.239%" y2="-561.457%">
            <stop offset="0%" stop-color="#2193B0"/>
            <stop offset="100%" stop-color="#6DD5ED"/>
        </linearGradient>
        <linearGradient id="q" x1="-445.245%" x2="1162.103%" y1="391.383%" y2="-716.171%">
            <stop offset="0%" stop-color="#2193B0"/>
            <stop offset="100%" stop-color="#6DD5ED"/>
        </linearGradient>
        <linearGradient id="r" x1="-528.947%" x2="1095.636%" y1="446.688%" y2="-662.955%">
            <stop offset="0%" stop-color="#2193B0"/>
            <stop offset="100%" stop-color="#6DD5ED"/>
        </linearGradient>
        <linearGradient id="s" x1="-3989.24%" x2="6223.526%" y1="372.432%" y2="-441.521%">
            <stop offset="0%" stop-color="#2193B0"/>
            <stop offset="100%" stop-color="#6DD5ED"/>
        </linearGradient>
        <linearGradient id="t" x1="-623.634%" x2="984.484%" y1="526.529%" y2="-585.317%">
            <stop offset="0%" stop-color="#2193B0"/>
            <stop offset="100%" stop-color="#6DD5ED"/>
        </linearGradient>
    </defs>
    <g fill="none" fill-rule="evenodd">
        <path fill="url(#a)" d="M31.953 29.782a.643.643 0 0 1-.171.807 1.67 1.67 0 0 1-.67.244c-.3.054-.635.08-.961.13-.445.068-.872.173-1.154.441a1.89 1.89 0 0 0 .149 1.282c.03.06.063.121.1.182a.268.268 0 0 1-.062.334c-.108.096-.271.075-.455.023-.299-.081-.659-.247-.943-.129l.376.763.131.264a.226.226 0 0 1-.132.253 3.154 3.154 0 0 0-1.628 1.427 9.29 9.29 0 0 1-.164.852c-.308 1.29-.925 2.31-2.536 2.44a3.187 3.187 0 0 1-1.142-.3 16.424 16.424 0 0 1-1.479-.752 21.964 21.964 0 0 0-2.18-1.112l-.076-.03a3.617 3.617 0 0 0-.602-.169 7.684 7.684 0 0 1-1.289-.322 10.522 10.522 0 0 1-5.456-4.577c.9 2.009 2.402 3.685 4.298 4.794a.38.38 0 0 1 .035.637c-.213.156-.404.34-.567.548-1.017 1.293-1.586 3.265-2.168 5.103a66.565 66.565 0 0 0-.917-2.761C10.337 34.7 7.77 30.1 4.268 26.792 2.68 25.408 1.488 23.819.78 22.17c-1.757-4.065-.649-8.515 4.473-11.265.097-.051.194-.1.294-.148l.072-.032c.115-.056.234-.106.354-.149a6.288 6.288 0 0 1 1.79-.42 2.48 2.48 0 0 0-.017.658 8.944 8.944 0 0 0-2.093.782C-.393 14.805-1.11 24.362 9.582 25.997a18.45 18.45 0 0 0 1.197.145c2.108.194 4.605.105 7.525-.356l.546-.088c1.61-.229 3.16-.775 4.558-1.607 2.056-1.223 3.554-2.919 4.605-4.501a18.744 18.744 0 0 0 1.203-2.098 8.867 8.867 0 0 1-.522 2.745 8.696 8.696 0 0 1-.99 1.942 8.731 8.731 0 0 0 1.54-1.644 8.828 8.828 0 0 0 1.674-5.182v-.244c.154-2.677-.428-4.85-1.418-6.708C27.628 3.921 23.692.394 23.362 0c4.805 4.811 12.606 9.062 7.894 21.517a7.5 7.5 0 0 0-.53 1.713c-.019.085-.033.17-.046.259-.197 1.318-.053 2.693.39 4.118.137.44.297.873.48 1.297.118.292.253.585.403.878z"/>
        <path fill="url(#b)" d="M12.28 18.861a.42.42 0 0 1-.18.348.417.417 0 0 1-.59-.107l-.654-.945-2.854-4.11-1.793-2.58-.462-.665-1.412-2.037a3.38 3.38 0 0 1 .62-.587L6.6 10.551l.441.633 1.725 2.485 2.743 3.955.698.995a.421.421 0 0 1 .071.242z"/>
        <path fill="url(#c)" d="M7.28 8.894l12.784-.01a.422.422 0 0 1 .421.422v.003a.422.422 0 0 1-.42.421L7.28 9.74a.422.422 0 0 1-.422-.422v-.003c0-.233.189-.421.422-.421z" transform="rotate(168.73 13.672 9.312)"/>
        <path fill="url(#d)" d="M15.637 12.919l9.058.006a.297.297 0 1 1 0 .595l-9.058-.007a.297.297 0 1 1 0-.595z" transform="rotate(78.73 20.166 13.22)"/>
        <path fill="url(#e)" d="M26.74 12.186a.296.296 0 0 1-.393.15l-1.45-.649-2.35-1.052-2.511-1.12-1.005-.451-.745-.334.045-.094c.073-.149.163-.29.266-.42l1.133.507 1.003.448 1.98.888 2.419 1.083 1.448.649a.3.3 0 0 1 .16.395z"/>
        <ellipse cx="13.266" cy="20.469" fill="url(#f)" rx="3.333" ry="3.346"/>
        <path fill="url(#g)" d="M9.516 9.945a3.331 3.331 0 0 1-6.513 1.014 3.356 3.356 0 0 1 .905-3.46 3.325 3.325 0 0 1 3.501-.664 3.346 3.346 0 0 1 2.107 3.11z"/>
        <ellipse cx="21.013" cy="17.483" fill="url(#h)" rx="2.473" ry="2.482"/>
        <ellipse cx="26.41" cy="12.032" fill="url(#i)" rx="1.553" ry="1.559"/>
        <path fill="url(#j)" d="M21.88 3.91l-.625 1.463-.55 1.287-.334.784-.046.11-.083.193-.195.457-.054.128-.16.38v.017l-.012.024-.147.31-.096.229-.085.199-.335.787-.279.665a2.228 2.228 0 0 1-.537-.262l.036-.085.433-1.014.156-.367.106-.244.21-.497.019-.04v-.019l.065-.148.168-.39.125-.295.023-.05.099-.236.36-.84.558-1.316.625-1.46a.296.296 0 0 1 .558.039c.021.062.02.13-.004.192z"/>
        <ellipse cx="21.727" cy="3.764" fill="url(#k)" rx="1.553" ry="1.559"/>
        <path fill="url(#l)" d="M21.618 9.157a2.39 2.39 0 0 1-.077.42c-.02.068-.041.14-.067.202a2.062 2.062 0 0 1-.173.354 2.382 2.382 0 0 1-.187.28c-.018.023-.037.044-.057.067a2.31 2.31 0 0 1-1.557.792 2.256 2.256 0 0 1-.93-.109 2.395 2.395 0 0 1-.386-.168 1.71 1.71 0 0 1-.152-.094 2.33 2.33 0 0 1-1.05-1.808 2.335 2.335 0 0 1 .499-1.6c.02-.026.045-.053.067-.08a2.332 2.332 0 0 1 2.51-.676 1.95 1.95 0 0 1 .535.258 2.331 2.331 0 0 1 1.026 2.163z"/>
        <path fill="url(#m)" d="M53.334 19.643c-1.452-1.283-2.875-1.517-4.473-1.517-2.233-.03-4.387.816-4.326 2.661.058 1.925 2.557 2.304 4.358 2.625 2.556.437 6.071.874 5.926 4.228-.09 3.174-3.372 4.015-5.9 4.015-2.53 0-5.024-.963-6.28-2.887l1.047-.934c1.19 1.721 3.34 2.45 5.257 2.45 1.744 0 4.387-.467 4.475-2.742.057-2.07-2.325-2.479-4.677-2.857-2.79-.466-5.55-.992-5.581-3.878-.03-2.83 2.79-4.054 5.694-4.026 2.093 0 3.922.584 5.346 1.925l-.866.937z"/>
        <path fill="url(#n)" d="M69.75 29.414a7.325 7.325 0 0 1-5.23 2.157c-4.039 0-7.38-2.802-7.38-7.348 0-4.547 3.226-7.35 7.38-7.35a7.445 7.445 0 0 1 5.23 2.16l-.93.902c-1.162-1.166-2.76-1.727-4.3-1.727-3.254 0-5.985 2.128-5.985 6.008s2.73 6.007 5.985 6.007a6.07 6.07 0 0 0 4.27-1.773l.96.964z"/>
        <path fill="url(#o)" fill-rule="nonzero" d="M74.542 12.326c0 1.517-2.294 1.517-2.294 0s2.294-1.52 2.294 0zm-1.888 4.636v14.462h1.424V16.959l-1.424.003z"/>
        <path fill="url(#p)" fill-rule="nonzero" d="M78.14 37.431V17.018h1.395v3.412c1.138-2.188 3.432-3.622 6.222-3.622 3.893.14 6.976 2.77 6.976 7.408 0 4.84-3.253 7.465-7.292 7.465-2.44 0-4.706-1.196-5.926-3.587v9.331l-1.375.006zm13.16-13.21c0-4.053-2.614-6.036-5.868-6.036-3.34 0-5.81 2.536-5.81 6.064 0 3.529 2.526 6.067 5.81 6.067 3.26 0 5.874-2.041 5.874-6.095H91.3z"/>
        <path fill="url(#q)" fill-rule="nonzero" d="M95.548 24.25c0-4.578 3.254-7.494 7.292-7.494s7.292 2.916 7.292 7.493c0 4.578-3.248 7.38-7.295 7.38-4.046 0-7.29-2.8-7.29-7.38zm13.19 0c0-3.733-2.644-6.154-5.898-6.154-3.254 0-5.898 2.42-5.898 6.153 0 3.733 2.651 5.98 5.898 5.98s5.898-2.247 5.898-5.98z"/>
        <path fill="url(#r)" fill-rule="nonzero" d="M112.605 24.221c0-4.316 3.254-7.437 7.292-7.437s7.638 2.48 7.08 8.107h-12.923c.29 3.384 2.876 5.338 5.84 5.338 1.888 0 4.097-.76 5.171-2.188l1.017.817c-1.395 1.837-3.893 2.77-6.188 2.77-4.038 0-7.29-2.83-7.29-7.407zm13.102-.584c-.03-3.557-2.353-5.54-5.81-5.54-2.964 0-5.52 2.012-5.84 5.54h11.65z"/>
        <path fill="url(#s)" fill-rule="nonzero" d="M132.558 12.326c0 1.517-2.295 1.517-2.295 0s2.295-1.52 2.295 0zm-1.888 4.636v14.462h1.423V16.959l-1.423.003z"/>
        <path fill="url(#t)" fill-rule="nonzero" d="M149.964 17.018v14.406h-1.425v-3.062c-1.395 2.24-3.544 3.296-5.86 3.296-4.01 0-7.292-3.034-7.292-7.437 0-4.402 3.281-7.378 7.292-7.378 2.323 0 4.677 1.078 5.86 3.325v-3.15h1.425zm-13.161 7.203c0 3.616 2.615 6.036 5.869 6.036 7.988 0 7.988-12.046 0-12.046-3.254-.003-5.87 2.394-5.87 6.01z"/>
    </g>
</svg>
