<svg xmlns="http://www.w3.org/2000/svg" width="140" height="140" viewBox="0 0 140 140">
    <defs>
        <linearGradient id="a" x1=".006%" x2="99.996%" y1="50.002%" y2="50.002%">
            <stop offset="0%" stop-color="#0093B2"/>
            <stop offset="100%" stop-color="#FF742C"/>
        </linearGradient>
        <linearGradient id="b" x1=".001%" y1="50.011%" y2="50.011%">
            <stop offset="0%" stop-color="#0093B2"/>
            <stop offset="100%" stop-color="#FF742C"/>
        </linearGradient>
        <linearGradient id="c" x1=".01%" x2="100.008%" y1="50.003%" y2="50.003%">
            <stop offset="0%" stop-color="#0093B2"/>
            <stop offset="100%" stop-color="#FF742C"/>
        </linearGradient>
        <linearGradient id="d" x1="-.002%" x2="99.991%" y1="50.003%" y2="50.003%">
            <stop offset="0%" stop-color="#0093B2"/>
            <stop offset="100%" stop-color="#FF742C"/>
        </linearGradient>
        <linearGradient id="e" x1="0%" y1="50.001%" y2="50.001%">
            <stop offset="0%" stop-color="#0093B2"/>
            <stop offset="100%" stop-color="#FF742C"/>
        </linearGradient>
        <linearGradient id="f" x1="-.01%" x2="99.992%" y1="50.003%" y2="50.003%">
            <stop offset="0%" stop-color="#0093B2"/>
            <stop offset="100%" stop-color="#FF742C"/>
        </linearGradient>
        <linearGradient id="g" x1="-.009%" x2="99.997%" y1="49.996%" y2="49.996%">
            <stop offset="0%" stop-color="#0093B2"/>
            <stop offset="100%" stop-color="#FF742C"/>
        </linearGradient>
        <linearGradient id="h" x1=".002%" x2="99.999%" y1="50.001%" y2="50.001%">
            <stop offset="0%" stop-color="#0093B2"/>
            <stop offset="100%" stop-color="#FF742C"/>
        </linearGradient>
        <linearGradient id="i" x1="-.001%" x2="99.998%" y1="50.001%" y2="50.001%">
            <stop offset="0%" stop-color="#0093B2"/>
            <stop offset="100%" stop-color="#FF742C"/>
        </linearGradient>
        <linearGradient id="j" x1="-.003%" x2="99.997%" y1="50.005%" y2="50.005%">
            <stop offset="0%" stop-color="#0093B2"/>
            <stop offset="100%" stop-color="#FF742C"/>
        </linearGradient>
        <linearGradient id="k" x1="-.001%" x2="100.001%" y1="50.009%" y2="50.009%">
            <stop offset="0%" stop-color="#0093B2"/>
            <stop offset="100%" stop-color="#FF742C"/>
        </linearGradient>
        <linearGradient id="l" x1="-.001%" x2="99.999%" y1="50.001%" y2="50.001%">
            <stop offset="0%" stop-color="#0093B2"/>
            <stop offset="100%" stop-color="#FF742C"/>
        </linearGradient>
        <linearGradient id="m" x1="-.011%" x2="99.997%" y1="49.991%" y2="49.991%">
            <stop offset="0%" stop-color="#0093B2"/>
            <stop offset="100%" stop-color="#FF742C"/>
        </linearGradient>
        <linearGradient id="n" x1=".001%" x2="99.999%" y1="49.993%" y2="49.993%">
            <stop offset="0%" stop-color="#0093B2"/>
            <stop offset="100%" stop-color="#FF742C"/>
        </linearGradient>
        <linearGradient id="o" x1=".001%" x2="99.997%" y1="50.005%" y2="50.005%">
            <stop offset="0%" stop-color="#0093B2"/>
            <stop offset="100%" stop-color="#FF742C"/>
        </linearGradient>
        <linearGradient id="p" x1=".001%" y1="50.001%" y2="50.001%">
            <stop offset="0%" stop-color="#0093B2"/>
            <stop offset="100%" stop-color="#FF742C"/>
        </linearGradient>
        <linearGradient id="q" x1="0%" x2="100.001%" y1="50.004%" y2="50.004%">
            <stop offset="0%" stop-color="#0093B2"/>
            <stop offset="100%" stop-color="#FF742C"/>
        </linearGradient>
        <linearGradient id="r" x1=".001%" x2="99.999%" y1="50.001%" y2="50.001%">
            <stop offset="0%" stop-color="#0093B2"/>
            <stop offset="100%" stop-color="#FF742C"/>
        </linearGradient>
        <linearGradient id="s" x1="0%" x2="99.995%" y1="50.001%" y2="50.001%">
            <stop offset="0%" stop-color="#0093B2"/>
            <stop offset="100%" stop-color="#FF742C"/>
        </linearGradient>
        <linearGradient id="t" x1=".002%" y1="49.994%" y2="49.994%">
            <stop offset="0%" stop-color="#0093B2"/>
            <stop offset="100%" stop-color="#FF742C"/>
        </linearGradient>
        <linearGradient id="u" x1="0%" y1="50.001%" y2="50.001%">
            <stop offset="0%" stop-color="#0093B2"/>
            <stop offset="100%" stop-color="#FF742C"/>
        </linearGradient>
    </defs>
    <g fill="none" fill-rule="nonzero" transform="translate(-11 -11)">
        <circle cx="81" cy="81" r="81"/>
        <path fill="url(#a)" d="M40.841 109.118c-2.672 0-4.799-.744-6.266-2.243-3.605-3.68-2.836-11.615 2.126-21.77 9.687-19.822 32.413-42.821 50.641-51.268 8.33-3.856 14.684-4.175 17.895-.9 3.601 3.68 2.836 11.615-2.126 21.773-9.69 19.82-32.406 42.819-50.655 51.265-4.509 2.094-8.446 3.143-11.615 3.143zm46.59-75.096l.085.188C69.348 42.62 46.72 65.534 37.077 85.283c-4.88 9.991-5.67 17.757-2.208 21.305 3.08 3.144 9.268 2.793 17.427-.985 18.165-8.411 40.792-31.325 50.44-51.074 4.876-9.991 5.67-17.757 2.207-21.305-3.08-3.143-9.268-2.793-17.427.986l-.085-.188z" transform="translate(11 11)"/>
        <path fill="url(#b)" d="M38.92 109.654c-3.123 0-5.547-.897-7.117-2.687-3.672-4.193-2.325-12.844 3.704-23.747 11.37-20.557 36.003-43.297 54.908-50.715 8.304-3.257 14.553-3.14 17.594.33 3.672 4.189 2.322 12.84-3.704 23.746-11.37 20.557-36.003 43.297-54.908 50.716-4.03 1.57-7.553 2.357-10.477 2.357zm61.972-79.091c-2.867 0-6.351.78-10.328 2.339-18.83 7.39-43.368 30.055-54.7 50.53-5.936 10.73-7.308 19.211-3.753 23.262 2.917 3.332 9.003 3.406 17.134.216 18.83-7.386 43.371-30.055 54.702-50.527 5.937-10.732 7.305-19.21 3.754-23.265-1.492-1.701-3.81-2.555-6.809-2.555z" transform="translate(11 11)"/>
        <path fill="url(#c)" d="M37.166 110.061c-3.68 0-6.469-1.084-8.152-3.232-3.722-4.76-1.733-14.142 5.45-25.735 13.115-21.167 39.64-43.468 59.12-49.71 8.23-2.636 14.337-2.07 17.2 1.6 3.718 4.76 1.733 14.141-5.45 25.734-13.115 21.167-39.64 43.468-59.12 49.71-3.402 1.091-6.447 1.633-9.048 1.633zm65.488-79.903c-2.556 0-5.561.536-8.936 1.617C74.313 37.99 47.894 60.215 34.82 81.31c-7.088 11.44-9.084 20.649-5.476 25.267 2.75 3.523 8.698 4.04 16.75 1.46 19.402-6.216 45.825-28.439 58.896-49.535 7.089-11.437 9.088-20.649 5.48-25.267-1.599-2.045-4.275-3.077-7.815-3.077z" transform="translate(11 11)"/>
        <path fill="url(#d)" d="M35.517 110.373c-4.32 0-7.474-1.318-9.275-3.927-3.732-5.398-1.038-15.517 7.386-27.762 14.929-21.681 43.283-43.312 63.227-48.228 8.22-2.024 14-1.017 16.715 2.91 3.746 5.398 1.039 15.517-7.386 27.763-14.911 21.677-43.276 43.311-63.227 48.223-2.43.636-4.928.979-7.44 1.021zm68.76-80.526a31.098 31.098 0 0 0-7.34 1.01c-19.87 4.89-48.128 26.45-62.99 48.057-8.322 12.1-11.015 22.049-7.386 27.291 2.609 3.775 8.24 4.721 16.279 2.743 19.894-4.884 48.142-26.444 63.007-48.05 8.322-12.1 11.016-22.049 7.386-27.29-1.722-2.5-4.76-3.761-8.938-3.761h-.018z" transform="translate(11 11)"/>
        <path fill="url(#e)" d="M34.23 110.543c-5.17 0-8.86-1.609-10.745-4.753-3.697-6.103-.23-16.966 9.509-29.8 16.743-22.06 46.888-42.798 67.193-46.228l.035.202-.035-.202c8.049-1.358 13.631.113 16.14 4.253 3.697 6.107.231 16.966-9.512 29.8C90.07 85.882 59.93 106.62 39.622 110.04c-1.78.318-3.583.486-5.391.503zm71.355-80.863c-1.783.014-3.561.176-5.317.486-20.22 3.416-50.247 24.1-66.937 46.076-9.492 12.504-13.036 23.473-9.485 29.34 2.417 3.99 7.85 5.397 15.72 4.068 20.202-3.413 50.247-24.083 66.933-46.076 9.495-12.504 13.04-23.474 9.488-29.34-1.836-3.016-5.383-4.554-10.402-4.554z" transform="translate(11 11)"/>
        <path fill="url(#f)" d="M33.316 110.621c-6.245 0-10.55-1.974-12.543-5.788-3.544-6.787.88-18.682 11.835-31.817 18.6-22.3 50.439-41.9 70.97-43.694 7.834-.684 13.186 1.272 15.475 5.67 3.544 6.792-.879 18.686-11.834 31.818C88.608 89.1 56.773 108.7 36.24 110.49c-1.021.09-1.996.134-2.925.131zm70.28-81.093l.018.205c-20.436 1.772-52.15 21.316-70.691 43.545-10.85 13.001-15.24 24.73-11.788 31.368 2.208 4.224 7.421 6.103 15.077 5.437 20.437-1.773 52.151-21.32 70.691-43.55 10.846-13 15.24-24.728 11.789-31.363-2.208-4.225-7.422-6.107-15.078-5.437l-.018-.205z" transform="translate(11 11)"/>
        <path fill="url(#g)" d="M32.842 110.643c-7.589 0-12.682-2.457-14.727-7.09-3.367-7.644 2.002-20.272 14.361-33.783 20.472-22.383 53.874-40.59 74.505-40.59 7.592 0 12.685 2.456 14.73 7.089 3.364 7.641-2.002 20.273-14.361 33.784-20.476 22.386-53.895 40.59-74.508 40.59zm74.129-81.059c-20.515 0-53.806 18.14-74.204 40.451C20.522 83.422 15.18 95.888 18.48 103.377c1.974 4.483 6.936 6.854 14.35 6.858 20.515 0 53.796-18.147 74.204-40.455 12.246-13.39 17.587-25.852 14.288-33.345-1.975-4.483-6.94-6.854-14.355-6.854l.004.003z" transform="translate(11 11)"/>
        <path fill="url(#h)" d="M32.866 110.646c-1.19 0-2.335-.053-3.445-.16-7.319-.708-12.125-3.675-13.897-8.609-3.08-8.58 3.31-21.91 17.09-35.659 22.351-22.3 57.241-38.849 77.777-36.892 7.319.708 12.125 3.675 13.897 8.612 3.077 8.577-3.31 21.908-17.09 35.66-21.146 21.095-53.516 37.045-74.332 37.048zm74.066-81.062c-20.717 0-52.952 15.9-74.03 36.932-13.664 13.631-20.015 26.802-16.992 35.23 1.716 4.775 6.401 7.66 13.55 8.34 20.426 1.95 55.17-14.532 77.447-36.772 13.667-13.635 20.018-26.806 16.995-35.23-1.716-4.778-6.401-7.66-13.55-8.344a33.547 33.547 0 0 0-3.42-.156z" transform="translate(11 11)"/>
        <path fill="url(#i)" d="M33.462 110.674a37.711 37.711 0 0 1-7.426-.68c-7.035-1.418-11.522-4.937-12.982-10.208C10.399 90.2 17.88 76.22 33.072 62.397c24.211-22.03 60.416-36.648 80.704-32.579 7.032 1.418 11.522 4.941 12.982 10.208 2.655 9.587-4.834 23.584-20.018 37.406-21.482 19.533-52.406 33.242-73.278 33.242zm72.867-81.129c-20.766 0-51.566 13.667-72.977 33.157C18.278 76.42 10.838 90.242 13.454 99.68c1.418 5.107 5.795 8.535 12.664 9.924 2.43.466 4.899.691 7.372.673 20.766 0 51.563-13.666 72.977-33.153 15.074-13.72 22.514-27.543 19.898-36.978-1.418-5.11-5.795-8.538-12.667-9.924a37.704 37.704 0 0 0-7.369-.677z" transform="translate(11 11)"/>
        <path fill="url(#j)" d="M34.734 110.795c-4.451 0-8.506-.535-12.026-1.655-6.734-2.127-10.877-6.27-11.976-11.923-2.066-10.658 6.578-25.204 23.13-38.91 26.04-21.567 63.387-33.965 83.249-27.645 6.734 2.148 10.877 6.27 11.976 11.923 2.066 10.658-6.582 25.203-23.13 38.913-21.436 17.757-50.528 29.297-71.223 29.297zm70.32-81.374c-20.59 0-49.564 11.509-70.93 29.202-16.434 13.61-25.03 28-22.988 38.516 1.063 5.497 5.111 9.513 11.696 11.61 19.742 6.292 56.915-6.07 82.86-27.556 16.434-13.61 25.025-28 22.987-38.52-1.063-5.497-5.11-9.512-11.696-11.61-3.487-1.124-7.517-1.642-11.933-1.642h.003z" transform="translate(11 11)"/>
        <path fill="url(#k)" d="M36.762 111.078c-6.635 0-12.55-1.02-17.304-3.19-6.436-2.923-10.193-7.694-10.86-13.8C7.312 82.323 17.183 67.316 35 53.94c27.826-20.887 66.112-30.775 85.354-22.039 6.436 2.924 10.193 7.695 10.86 13.802 1.286 11.763-8.585 26.773-26.405 40.15-20.947 15.736-47.83 25.224-68.047 25.224zm66.278-81.944c-20.114 0-46.895 9.463-67.778 25.143C17.558 67.565 7.748 82.433 9.034 94.052c.649 5.954 4.324 10.615 10.633 13.468 19.118 8.68 57.22-1.184 84.936-21.992 17.7-13.288 27.51-28.156 26.228-39.775-.649-5.954-4.324-10.615-10.633-13.468-4.725-2.137-10.594-3.15-17.172-3.15h.014z" transform="translate(11 11)"/>
        <path fill="url(#l)" d="M39.586 111.62c-9.215 0-17.31-1.729-23.254-5.372-6.139-3.76-9.46-9.262-9.608-15.904-.288-12.858 10.849-28.188 29.793-41.004 29.542-19.983 68.554-27.06 86.963-15.775 6.135 3.764 9.46 9.26 9.609 15.903.287 12.862-10.85 28.188-29.794 41.004-20.004 13.543-44.36 21.149-63.709 21.149zm60.63-83.028c-19.257 0-43.521 7.595-63.469 21.089C17.92 62.415 6.847 77.617 7.131 90.337c.149 6.493 3.403 11.877 9.414 15.56 18.285 11.21 57.099 4.136 86.52-15.765 18.827-12.735 29.9-27.933 29.612-40.654-.145-6.496-3.399-11.876-9.413-15.563-5.887-3.622-13.905-5.323-23.049-5.323z" transform="translate(11 11)"/>
        <path fill="url(#m)" d="M43.159 112.521c-12.2 0-22.797-2.715-29.797-8.347-5.83-4.692-8.655-11.016-8.152-18.288.932-13.894 13.359-29.365 33.239-41.38 31.19-18.842 70.659-22.811 88.019-8.86 5.83 4.692 8.655 11.015 8.152 18.288-.929 13.897-13.355 29.364-33.235 41.383-18.608 11.246-40.171 17.204-58.226 17.204zm53.494-84.822c-17.97 0-39.459 5.933-58.01 17.147C18.878 56.79 6.526 72.137 5.604 85.903c-.478 7.131 2.294 13.338 8.014 17.942 17.236 13.865 56.51 9.885 87.545-8.861 19.766-11.948 32.118-27.291 33.04-41.061.482-7.145-2.287-13.351-8.025-17.959-6.918-5.575-17.424-8.265-29.524-8.265z" transform="translate(11 11)"/>
        <path fill="url(#n)" d="M47.33 113.847c-15.492 0-28.917-4.059-36.743-12.221C5.079 95.88 2.835 88.61 4.118 80.622c2.361-14.8 16.06-30.197 36.641-41.181 32.704-17.452 72.39-18.005 88.466-1.237 5.508 5.742 7.745 13.011 6.469 21.014-2.36 14.805-16.06 30.198-36.641 41.181-16.78 8.932-35.4 13.448-51.722 13.448zm45.176-87.484c-16.254 0-34.812 4.497-51.544 13.425C20.493 50.712 6.872 65.995 4.533 80.672c-1.255 7.872.943 15.02 6.359 20.67 15.949 16.659 55.425 16.052 87.976-1.318C119.34 89.1 132.958 73.817 135.3 59.14c1.255-7.872-.943-15.02-6.358-20.667-7.77-8.091-21.078-12.11-36.436-12.11z" transform="translate(11 11)"/>
        <path fill="url(#o)" d="M51.828 115.71c-18.976 0-35.467-5.85-43.786-17.1-5.146-6.958-6.67-15.305-4.413-24.14 3.96-15.503 18.874-30.574 39.892-40.314 34.106-15.8 73.693-12.642 88.253 7.04 5.142 6.957 6.67 15.304 4.412 24.14-3.962 15.51-18.87 30.58-39.894 40.316-14.614 6.77-30.237 10.059-44.464 10.059zm36.177-91.208c-14.177 0-29.74 3.278-44.304 10.03C22.79 44.22 7.964 59.186 4.033 74.582 1.808 83.299 3.325 91.529 8.38 98.38c14.446 19.536 53.81 22.634 87.746 6.912 20.911-9.687 35.737-24.655 39.668-40.051 2.226-8.715.709-16.942-4.345-23.796-8.252-11.15-24.612-16.942-43.443-16.942z" transform="translate(11 11)"/>
        <path fill="url(#p)" d="M56.326 118.17c-22.513 0-42.177-8.2-50.556-23.055C1.06 86.754.404 77.18 3.87 67.43c5.671-15.928 21.692-30.4 42.862-38.71 35.358-13.88 74.522-6.713 87.306 15.977 4.714 8.361 5.37 17.934 1.9 27.685-5.67 15.928-21.687 30.4-42.857 38.71a101.342 101.342 0 0 1-36.755 7.079zm27.181-96.124a101.045 101.045 0 0 0-36.626 7.053C25.82 37.382 9.885 51.75 4.253 67.569c-3.427 9.633-2.779 19.09 1.872 27.344 12.692 22.52 51.647 29.609 86.807 15.8 21.06-8.268 36.995-22.648 42.62-38.466 3.427-9.637 2.782-19.093-1.868-27.348-8.297-14.726-27.823-22.853-50.177-22.853z" transform="translate(11 11)"/>
        <path fill="url(#q)" d="M60.494 121.258c-25.983 0-48.78-11.214-56.677-30.127-4.171-10.009-3.76-20.947 1.18-31.647 7.397-16.02 24.371-29.61 45.407-36.354 36.435-11.696 74.834-.213 85.59 25.569 4.169 9.991 3.761 20.929-1.183 31.63-7.393 16.02-24.37 29.608-45.406 36.353a94.987 94.987 0 0 1-28.91 4.576zM79.332 18.95a94.633 94.633 0 0 0-28.8 4.558C29.62 30.22 12.72 43.73 5.37 59.644.478 70.24.053 81.065 4.193 90.947c7.836 18.785 30.48 29.892 56.287 29.892a94.633 94.633 0 0 0 28.801-4.557c20.93-6.71 37.81-20.203 45.162-36.135 4.89-10.597 5.298-21.418 1.173-31.3-7.833-18.766-30.47-29.896-56.284-29.896z" transform="translate(11 11)"/>
        <path fill="url(#r)" d="M64.074 124.98c-29.322 0-55.004-14.975-61.855-38.382-3.474-11.86-1.772-24.279 4.923-35.914 9.194-15.975 26.472-28.096 47.408-33.257 37.322-9.197 74.573 6.855 83.043 35.798 3.474 11.863 1.773 24.282-4.926 35.914-9.19 15.974-26.473 28.096-47.409 33.256a88.562 88.562 0 0 1-21.184 2.584zM75.745 15.243a88.196 88.196 0 0 0-21.095 2.58C33.823 22.96 16.633 35.011 7.51 50.89.875 62.422-.815 74.732 2.626 86.485c6.784 23.225 32.303 38.087 61.437 38.087a88.232 88.232 0 0 0 21.1-2.584c20.826-5.136 38.012-17.186 47.139-33.065 6.635-11.533 8.34-23.842 4.898-35.592-6.798-23.23-32.317-38.087-61.455-38.087z" transform="translate(11 11)"/>
        <path fill="url(#s)" d="M66.888 129.328c-32.508 0-60.675-19.557-65.867-47.766-2.538-13.784.794-28.142 9.389-40.406 10.714-15.329 28.492-26.082 48.78-29.51 37.98-6.429 73.693 14.48 79.608 46.605 2.538 13.787-.797 28.141-9.388 40.422-10.718 15.312-28.493 26.065-48.774 29.496a82.384 82.384 0 0 1-13.748 1.16zm6.025-118.433c-4.583 0-9.158.387-13.677 1.156-20.17 3.41-37.85 14.099-48.504 29.325C2.215 53.566-1.095 67.81 1.418 81.487c5.157 28 33.153 47.43 65.463 47.434a82.001 82.001 0 0 0 13.681-1.16c20.17-3.413 37.85-14.102 48.504-29.329 8.531-12.188 11.841-26.433 9.321-40.11-5.157-28.008-33.15-47.427-65.46-47.427h-.014z" transform="translate(11 11)"/>
        <path fill="url(#t)" d="M68.845 134.283c-35.571.004-65.655-25.009-68.58-58.268-3.1-35.351 25.633-66.835 64.036-70.178 18.597-1.626 36.666 3.506 50.875 14.454 14.209 10.948 22.871 26.416 24.37 43.538 1.5 17.123-4.341 33.848-16.438 47.104-12.097 13.256-28.996 21.436-47.597 23.06-2.236.194-4.465.29-6.666.29zM71.042 5.937c-2.226 0-4.461.098-6.706.294C26.161 9.57-2.399 40.85.673 75.965c2.893 33.058 32.817 57.907 68.172 57.907 2.192 0 4.403-.096 6.63-.287 18.499-1.62 35.306-9.768 47.328-22.942 12.022-13.175 17.82-29.773 16.336-46.785-1.485-17.013-10.087-32.367-24.211-43.24-12.416-9.581-27.791-14.681-43.886-14.681z" transform="translate(11 11)"/>
        <path fill="url(#u)" d="M69.904 139.812C31.36 139.812 0 108.452 0 69.908S31.36 0 69.904 0c38.545 0 69.908 31.356 69.908 69.908 0 38.551-31.356 69.904-69.908 69.904zm0-139.4C31.587.411.411 31.6.411 69.907c0 38.307 31.19 69.493 69.493 69.493 38.304 0 69.497-31.19 69.497-69.493S108.225.41 69.904.41z" transform="translate(11 11)"/>
    </g>
</svg>
