<svg xmlns="http://www.w3.org/2000/svg" width="140" height="140" viewBox="0 0 140 140">
    <defs>
        <linearGradient id="a" x1="-.009%" x2="100.005%" y1="50.002%" y2="50.002%">
            <stop offset="0%" stop-color="#0093B2"/>
            <stop offset="100%" stop-color="#FF742C"/>
        </linearGradient>
        <linearGradient id="b" x1=".008%" x2="99.972%" y1="49.999%" y2="49.999%">
            <stop offset="0%" stop-color="#0093B2"/>
            <stop offset="100%" stop-color="#FF742C"/>
        </linearGradient>
        <linearGradient id="c" x1="-.001%" x2="100.001%" y1="49.993%" y2="49.993%">
            <stop offset="0%" stop-color="#0093B2"/>
            <stop offset="100%" stop-color="#FF742C"/>
        </linearGradient>
        <linearGradient id="d" x1="0%" y1="50.004%" y2="50.004%">
            <stop offset="0%" stop-color="#0093B2"/>
            <stop offset="100%" stop-color="#FF742C"/>
        </linearGradient>
        <linearGradient id="e" x1=".007%" y1="50.003%" y2="50.003%">
            <stop offset="0%" stop-color="#0093B2"/>
            <stop offset="100%" stop-color="#FF742C"/>
        </linearGradient>
        <linearGradient id="f" x1="-.012%" x2="100.006%" y1="49.992%" y2="49.992%">
            <stop offset="0%" stop-color="#0093B2"/>
            <stop offset="100%" stop-color="#FF742C"/>
        </linearGradient>
        <linearGradient id="g" x1=".001%" x2="100.001%" y1="50.008%" y2="50.008%">
            <stop offset="0%" stop-color="#0093B2"/>
            <stop offset="100%" stop-color="#FF742C"/>
        </linearGradient>
        <linearGradient id="h" x1=".003%" x2="100.002%" y1="50.001%" y2="50.001%">
            <stop offset="0%" stop-color="#0093B2"/>
            <stop offset="100%" stop-color="#FF742C"/>
        </linearGradient>
        <linearGradient id="i" x1="-.001%" x2="100.001%" y1="49.999%" y2="49.999%">
            <stop offset="0%" stop-color="#0093B2"/>
            <stop offset="100%" stop-color="#FF742C"/>
        </linearGradient>
        <linearGradient id="j" x1="-.012%" x2="100.008%" y1="50.001%" y2="50.001%">
            <stop offset="0%" stop-color="#0093B2"/>
            <stop offset="100%" stop-color="#FF742C"/>
        </linearGradient>
        <linearGradient id="k" x1="-.006%" x2="100.01%" y1="50.002%" y2="50.002%">
            <stop offset="0%" stop-color="#0093B2"/>
            <stop offset="100%" stop-color="#FF742C"/>
        </linearGradient>
        <linearGradient id="l" x1="0%" y1="50.001%" y2="50.001%">
            <stop offset="0%" stop-color="#0093B2"/>
            <stop offset="100%" stop-color="#FF742C"/>
        </linearGradient>
        <linearGradient id="m" x1="-.001%" y1="50%" y2="50%">
            <stop offset="0%" stop-color="#0093B2"/>
            <stop offset="100%" stop-color="#FF742C"/>
        </linearGradient>
        <linearGradient id="n" x1=".001%" x2="99.999%" y1="50.001%" y2="50.001%">
            <stop offset="0%" stop-color="#0093B2"/>
            <stop offset="100%" stop-color="#FF742C"/>
        </linearGradient>
        <linearGradient id="o" x1=".003%" x2="99.997%" y1="50.001%" y2="50.001%">
            <stop offset="0%" stop-color="#0093B2"/>
            <stop offset="100%" stop-color="#FF742C"/>
        </linearGradient>
        <linearGradient id="p" x1="0%" y1="50.001%" y2="50.001%">
            <stop offset="0%" stop-color="#0093B2"/>
            <stop offset="100%" stop-color="#FF742C"/>
        </linearGradient>
    </defs>
    <g fill="none" fill-rule="nonzero" transform="translate(-11 -12)">
        <circle cx="81" cy="81" r="81"/>
        <path fill="url(#a)" d="M90.495 109.46h-.054L29.622 88.213a.159.159 0 0 1-.095-.086.174.174 0 0 1 0-.127l20.14-57.409a.165.165 0 0 1 .212-.101l60.81 21.237a.168.168 0 0 1 .095.086.177.177 0 0 1 0 .126l-20.13 57.41a.168.168 0 0 1-.159.11zM29.89 87.953l60.505 21.13 20.028-57.096L49.917 30.86 29.89 87.953z" transform="translate(11 12)"/>
        <path fill="url(#b)" d="M89.695 111.382a.13.13 0 0 1-.06 0L27.73 87.31a.168.168 0 0 1-.092-.089.161.161 0 0 1 0-.126l22.838-58.43a.165.165 0 0 1 .216-.095l61.905 24.073c.085.033.128.13.095.215l-22.85 58.417a.174.174 0 0 1-.09.095.248.248 0 0 1-.057.012zM28.013 87.044L89.6 110.986l22.698-58.112-61.587-23.946-22.698 58.116z" transform="translate(11 12)"/>
        <path fill="url(#c)" d="M88.8 113.333a.165.165 0 0 1-.067 0L25.83 86.315a.159.159 0 0 1-.09-.091.174.174 0 0 1 0-.127L51.36 26.72a.159.159 0 0 1 .092-.088.162.162 0 0 1 .127 0l62.905 27.015a.162.162 0 0 1 .085.218l-25.616 59.367a.165.165 0 0 1-.152.101zM26.114 86.062l62.597 26.885 25.486-59.07L51.6 26.994 26.114 86.062z" transform="translate(11 12)"/>
        <path fill="url(#d)" d="M87.806 115.31a.134.134 0 0 1-.07-.016l-63.838-30.09a.168.168 0 0 1-.079-.222l28.533-60.257c.02-.04.054-.07.096-.086a.162.162 0 0 1 .127 0l63.838 30.097c.082.04.118.139.08.222l-28.534 60.257a.159.159 0 0 1-.096.085.181.181 0 0 1-.057.01zM24.194 84.972l63.533 29.945 28.39-59.956-63.533-29.945-28.39 59.956z" transform="translate(11 12)"/>
        <path fill="url(#e)" d="M86.711 117.315a.169.169 0 0 1-.076-.02L21.949 84a.193.193 0 0 1-.082-.098.161.161 0 0 1 0-.127l31.571-61.058c.02-.04.056-.07.099-.083a.178.178 0 0 1 .126 0l64.699 33.309c.08.042.112.141.07.222L86.86 117.223a.168.168 0 0 1-.149.092zM22.267 83.778l64.374 33.144 31.429-60.76-64.4-33.144-31.403 60.76z" transform="translate(11 12)"/>
        <path fill="url(#f)" d="M85.514 119.352a.188.188 0 0 1-.082-.023L20 82.69a.165.165 0 0 1-.063-.228l34.726-61.765a.162.162 0 0 1 .102-.076.162.162 0 0 1 .127 0l65.425 36.631a.165.165 0 0 1 .064.228l-34.73 61.765a.165.165 0 0 1-.099.08l-.038.028zM20.295 82.48l65.153 36.463 34.568-61.483L54.86 20.997 20.295 82.48z" transform="translate(11 12)"/>
        <path fill="url(#g)" d="M84.203 121.379a.165.165 0 0 1-.086-.022L18.01 81.27a.171.171 0 0 1-.077-.105.155.155 0 0 1 .023-.123l38.01-62.414a.162.162 0 0 1 .228-.054l66.108 40.096a.17.17 0 0 1 .054.231L84.346 121.3a.168.168 0 0 1-.143.079zM18.327 81.07l65.822 39.91 37.835-62.113-65.822-39.923L18.327 81.07z" transform="translate(11 12)"/>
        <path fill="url(#h)" d="M82.781 123.438a.165.165 0 0 1-.092-.029L16.022 79.737a.165.165 0 0 1-.047-.232L57.39 16.578a.165.165 0 0 1 .229-.047l66.667 43.675a.152.152 0 0 1 .07.105c.01.043.002.09-.023.127l-41.412 62.924a.172.172 0 0 1-.14.076zM16.349 79.547l66.384 43.491 41.229-62.645-66.384-43.492-41.229 62.646z" transform="translate(11 12)"/>
        <path fill="url(#i)" d="M81.241 125.506a.181.181 0 0 1-.095-.032l-67.111-47.39a.168.168 0 0 1-.038-.231l44.936-63.343a.165.165 0 0 1 .232-.041l67.108 47.388a.155.155 0 0 1 .07.107.168.168 0 0 1-.029.124l-44.936 63.348a.162.162 0 0 1-.108.067l-.029.003zM14.365 77.909l66.838 47.195 44.743-63.083-66.838-47.194-44.743 63.082z" transform="translate(11 12)"/>
        <path fill="url(#j)" d="M79.581 127.587a.178.178 0 0 1-.102-.035L12.063 76.31a.171.171 0 0 1-.066-.108.158.158 0 0 1 .035-.124l48.571-63.665a.169.169 0 0 1 .235-.032l67.416 51.25a.161.161 0 0 1 .032.23l-48.572 63.666a.168.168 0 0 1-.11.066l-.023-.006zm-67.2-51.439l67.168 51.033 48.388-63.386-67.175-51.033L12.38 76.148z" transform="translate(11 12)"/>
        <path fill="url(#k)" d="M77.797 129.658a.172.172 0 0 1-.108-.038l-67.62-55.208a.161.161 0 0 1-.021-.234l52.336-63.836a.165.165 0 0 1 .235-.023l67.62 55.209a.165.165 0 0 1 .021.234l-52.336 63.836a.152.152 0 0 1-.111.06h-.016zM10.4 74.26l67.378 55 52.133-63.58-67.371-55L10.4 74.26z" transform="translate(11 12)"/>
        <path fill="url(#l)" d="M75.873 131.736a.153.153 0 0 1-.108-.041L8.083 72.385a.165.165 0 0 1-.016-.234L64.305 8.26a.159.159 0 0 1 .114-.057.168.168 0 0 1 .12.04l67.69 59.31a.17.17 0 0 1 .057.115.168.168 0 0 1-.042.12l-56.238 63.89a.159.159 0 0 1-.114.057h-.019zM8.429 72.246l67.444 59.091 56.01-63.643L64.444 8.606 8.43 72.246z" transform="translate(11 12)"/>
        <path fill="url(#m)" d="M73.832 133.81a.175.175 0 0 1-.115-.047l-67.6-63.535a.165.165 0 0 1 0-.234L66.35 6.183a.165.165 0 0 1 .118-.05.156.156 0 0 1 .12.043l67.607 63.536c.032.03.05.073.05.117a.17.17 0 0 1-.044.12l-60.232 63.808a.184.184 0 0 1-.117.054h-.02zM6.47 70.099l67.355 63.31 60.016-63.566L66.486 6.534 6.47 70.098z" transform="translate(11 12)"/>
        <path fill="url(#n)" d="M71.648 135.87a.15.15 0 0 1-.118-.048L4.171 67.935a.168.168 0 0 1 0-.238l64.375-63.58a.15.15 0 0 1 .117-.047c.044.001.086.018.118.048l67.359 67.89a.165.165 0 0 1 0 .235l-64.375 63.58a.162.162 0 0 1-.117.047zM4.527 67.818l67.124 67.65 64.127-63.349L68.66 4.472 4.527 67.818z" transform="translate(11 12)"/>
        <path fill="url(#o)" d="M69.324 137.916a.178.178 0 0 1-.124-.054L2.25 65.505a.165.165 0 0 1 0-.234L70.874 2.068a.197.197 0 0 1 .12-.044.184.184 0 0 1 .118.054l66.95 72.363a.165.165 0 0 1 0 .234l-68.623 63.196a.178.178 0 0 1-.114.045zM2.61 65.382l66.723 72.132 68.369-62.969L70.978 2.426 2.61 65.382z" transform="translate(11 12)"/>
        <path fill="url(#p)" d="M66.854 139.94a.165.165 0 0 1-.127-.057L.359 62.914a.177.177 0 0 1-.042-.123.17.17 0 0 1 .058-.11L73.349.04a.165.165 0 0 1 .235.02l66.368 76.968a.164.164 0 0 1-.015.234l-72.975 62.636a.159.159 0 0 1-.108.04zM.721 62.832l66.152 76.706 72.717-62.43L73.438.402.721 62.832z" transform="translate(11 12)"/>
    </g>
</svg>
