<svg xmlns="http://www.w3.org/2000/svg" width="24" height="24" viewBox="0 0 24 24">
    <defs>
        <linearGradient id="a" x1="-42.915%" x2="115.518%" y1="86.641%" y2="30.412%">
            <stop offset="0%" stop-color="#0691B4"/>
            <stop offset="100%" stop-color="#36D5FA"/>
        </linearGradient>
    </defs>
    <path fill="url(#a)" fill-rule="evenodd" d="M120 60c-6.627 0-12-5.373-12-12s5.373-12 12-12 12 5.373 12 12-5.373 12-12 12zm8-16.465c-.589.26-1.22.438-1.885.517a3.292 3.292 0 0 0 1.443-1.812 6.623 6.623 0 0 1-2.086.795A3.275 3.275 0 0 0 123.077 42a3.28 3.28 0 0 0-3.198 4.023 9.323 9.323 0 0 1-6.764-3.424 3.274 3.274 0 0 0 1.016 4.375 3.286 3.286 0 0 1-1.487-.412v.041a3.282 3.282 0 0 0 2.632 3.214 3.33 3.33 0 0 1-.864.115c-.212 0-.417-.021-.618-.061a3.283 3.283 0 0 0 3.065 2.276 6.592 6.592 0 0 1-4.076 1.4c-.265 0-.526-.016-.783-.045a9.288 9.288 0 0 0 5.031 1.475c6.038 0 9.338-4.994 9.338-9.324l-.01-.424A6.549 6.549 0 0 0 128 43.535z" transform="translate(-108 -36)"/>
</svg>
